<svg width="374.6625122070312px" height="120.21494140624999px" xmlns="http://www.w3.org/2000/svg" viewBox="62.668743896484386 14.892529296875004 374.6625122070312 120.21494140624999" style="background: none;" preserveAspectRatio="xMidYMid"><defs><filter id="editing-lego" x="-100%" y="-100%" width="300%" height="300%"><feFlood flood-color="#000" result="f1"></feFlood><feFlood flood-color="#ffff00" result="f2"></feFlood><feMorphology operator="dilate" radius="3" in="SourceAlpha"></feMorphology><feConvolveMatrix order="5,5" divisor="1" result="cm1" kernelMatrix="0 1 1 1 0  1 0 0 0 1  1 0 0 0 1  1 0 0 0 1  0 1 1 1 0"></feConvolveMatrix><feComposite operator="in" in="f1" in2="cm1" result="c1"></feComposite><feMorphology operator="dilate" radius="3"></feMorphology><feConvolveMatrix order="5,5" divisor="1" result="cm2" kernelMatrix="0 1 1 1 0  1 0 0 0 1  1 0 0 0 1  1 0 0 0 1  0 1 1 1 0"></feConvolveMatrix><feComposite operator="in" in="f2" in2="cm2" result="c2"></feComposite><feMerge><feMergeNode in="c2"></feMergeNode><feMergeNode in="c1"></feMergeNode><feMergeNode in="SourceGraphic"></feMergeNode></feMerge></filter></defs><g filter="url(#editing-lego)"><g transform="translate(119.970006108284, 104.30937576293945)"><path d="M16.13-3.46L16.13-3.46L16.13-3.46Q14.18 1.26 7.94 1.26L7.94 1.26L7.94 1.26Q4.79 1.26 2.77-0.95L2.77-0.95L2.77-0.95Q1.13-2.77 1.13-4.85L1.13-4.85L1.13-4.85Q1.13-9.58 3.34-19.91L3.34-19.91L7.94-44.10L20.73-45.36L14.62-13.48L14.62-13.48Q13.54-8.82 13.54-7.18L13.54-7.18L13.54-7.18Q13.54-3.59 16.13-3.46ZM47.00-10.65L47.00-10.65L47.00-10.65Q48.57-9.58 48.57-7.21L48.57-7.21L48.57-7.21Q48.57-4.85 47.38-3.34L47.38-3.34L47.38-3.34Q46.18-1.83 44.23-0.82L44.23-0.82L44.23-0.82Q40.19 1.26 35.85 1.26L35.85 1.26L35.85 1.26Q31.50 1.26 28.95 0.32L28.95 0.32L28.95 0.32Q26.40-0.63 24.70-2.39L24.70-2.39L24.70-2.39Q21.36-5.73 21.36-11.84L21.36-11.84L21.36-11.84Q21.36-21.36 26.52-27.15L26.52-27.15L26.52-27.15Q32.07-33.39 41.71-33.39L41.71-33.39L41.71-33.39Q47.69-33.39 50.65-30.87L50.65-30.87L50.65-30.87Q52.86-28.98 52.86-25.89L52.86-25.89L52.86-25.89Q52.86-14.80 33.70-14.80L33.70-14.80L33.70-14.80Q33.45-13.17 33.45-11.78L33.45-11.78L33.45-11.78Q33.45-8.88 34.74-7.78L34.74-7.78L34.74-7.78Q36.04-6.68 38.43-6.68L38.43-6.68L38.43-6.68Q40.82-6.68 43.38-7.78L43.38-7.78L43.38-7.78Q45.93-8.88 47.00-10.65ZM34.15-17.51L34.15-17.51L34.15-17.51Q38.62-17.51 41.20-20.29L41.20-20.29L41.20-20.29Q43.78-22.93 43.78-27.15L43.78-27.15L43.78-27.15Q43.78-28.60 43.25-29.39L43.25-29.39L43.25-29.39Q42.71-30.18 41.64-30.18L41.64-30.18L41.64-30.18Q40.57-30.18 39.66-29.77L39.66-29.77L39.66-29.77Q38.74-29.36 37.80-27.97L37.80-27.97L37.80-27.97Q35.47-24.82 34.15-17.51ZM68.73 1.26L68.73 1.26L68.73 1.26Q54.87 1.26 54.87-11.78L54.87-11.78L54.87-11.78Q54.87-21.04 59.98-27.03L59.98-27.03L59.98-27.03Q65.39-33.39 74.78-33.39L74.78-33.39L74.78-33.39Q81.58-33.39 85.05-30.24L85.05-30.24L85.05-30.24Q88.52-27.09 88.52-20.48L88.52-20.48L88.52-20.48Q88.52-10.39 83.10-4.54L83.10-4.54L83.10-4.54Q77.80 1.26 68.73 1.26ZM70.37-26.14L70.37-26.14L70.37-26.14Q69.61-24.44 69.02-21.89L69.02-21.89L69.02-21.89Q68.42-19.34 67.66-15.31L67.66-15.31L67.66-15.31Q66.91-11.28 66.91-6.30L66.91-6.30L66.91-6.30Q66.91-4.66 67.44-3.59L67.44-3.59L67.44-3.59Q67.98-2.52 69.43-2.52L69.43-2.52L69.43-2.52Q70.88-2.52 71.79-3.21L71.79-3.21L71.79-3.21Q72.70-3.91 73.39-5.54L73.39-5.54L73.39-5.54Q74.66-8.44 75.66-13.83L75.66-13.83L75.66-13.83Q76.67-19.21 76.77-21.55L76.77-21.55L76.77-21.55Q76.86-23.88 76.86-25.61L76.86-25.61L76.86-25.61Q76.86-27.34 76.36-28.48L76.36-28.48L76.36-28.48Q75.85-29.61 74.43-29.61L74.43-29.61L74.43-29.61Q73.02-29.61 72.07-28.73L72.07-28.73L72.07-28.73Q71.13-27.85 70.37-26.14ZM112.27-7.12L112.27-7.12L112.27-7.12Q108.99-3.72 103.00-3.72L103.00-3.72L103.00-3.72Q95.51-3.72 93.93-9.20L93.93-9.20L93.93-9.20Q93.43-10.84 93.43-12.66L93.43-12.66L93.43-12.66Q93.43-14.49 93.81-16.38L93.81-16.38L96.77-32.13L109.56-33.39L106.09-15.06L106.09-15.06Q105.97-14.24 105.78-13.36L105.78-13.36L105.78-13.36Q105.59-12.47 105.59-11.56L105.59-11.56L105.59-11.56Q105.59-10.65 105.90-10.05L105.90-10.05L105.90-10.05Q106.22-9.45 106.66-9.07L106.66-9.07L106.66-9.07Q107.42-8.57 108.77-8.57L108.77-8.57L108.77-8.57Q110.12-8.57 111.29-10.21L111.29-10.21L111.29-10.21Q112.45-11.84 113.02-14.68L113.02-14.68L116.49-32.13L128.90-33.39L124.17-8.63L124.17-8.63Q121.84 3.46 117.05 8.25L117.05 8.25L117.05 8.25Q114.60 10.71 111.42 11.69L111.42 11.69L111.42 11.69Q108.23 12.66 104.14 12.66L104.14 12.66L104.14 12.66Q97.52 12.66 93.74 10.58L93.74 10.58L93.74 10.58Q89.96 8.51 89.96 5.04L89.96 5.04L89.96 5.04Q89.96 2.46 91.92 0.98L91.92 0.98L91.92 0.98Q93.87-0.50 96.89-0.50L96.89-0.50L96.89-0.50Q99.54-0.50 101.56 0.63L101.56 0.63L101.56 0.63Q102.75 1.32 103.32 2.21L103.32 2.21L103.32 2.21Q101.87 3.46 101.87 5.54L101.87 5.54L101.87 5.54Q101.87 8.32 104.39 8.32L104.39 8.32L104.39 8.32Q108.55 8.32 110.94-1.26L110.94-1.26L110.94-1.26Q111.64-4.09 112.27-7.12ZM157.81 1.26L157.81 1.26L157.81 1.26Q150.19 1.26 150.19-4.66L150.19-4.66L150.19-4.66Q150.25-6.30 150.76-9.07L150.76-9.07L151.89-14.87L151.89-14.87Q153.59-23.06 153.59-24.89L153.59-24.89L153.59-24.89Q153.59-28.54 151.45-28.54L151.45-28.54L151.45-28.54Q147.86-28.54 145.97-19.15L145.97-19.15L142.25 0L129.59 1.26L136.14-32.19L146.47-33.39L145.47-27.22L145.47-27.22Q148.43-33.39 157.50-33.39L157.50-33.39L157.50-33.39Q161.91-33.39 163.77-31.53L163.77-31.53L163.77-31.53Q165.63-29.67 165.63-25.52L165.63-25.52L165.63-25.52Q165.63-21.61 163.61-12.47L163.61-12.47L163.61-12.47Q162.67-8.38 162.67-6.84L162.67-6.84L162.67-6.84Q162.67-5.29 163.52-4.41L163.52-4.41L163.52-4.41Q164.37-3.53 165.63-3.40L165.63-3.40L165.63-3.40Q165.00-1.26 162.82 0L162.82 0L162.82 0Q160.65 1.26 157.81 1.26ZM185.79-3.46L185.79-3.46L185.79-3.46Q183.83 1.26 177.60 1.26L177.60 1.26L177.60 1.26Q174.38 1.26 172.37-0.95L172.37-0.95L172.37-0.95Q170.67-2.90 170.67-4.85L170.67-4.85L170.67-4.85Q170.67-9.95 173.00-19.91L173.00-19.91L175.33-32.13L188.12-33.39L184.28-13.48L184.28-13.48Q183.20-8.82 183.20-7.18L183.20-7.18L183.20-7.18Q183.20-3.59 185.79-3.46ZM176.46-40.89L176.46-40.89L176.46-40.89Q176.46-43.34 178.51-44.67L178.51-44.67L178.51-44.67Q180.56-45.99 183.52-45.99L183.52-45.99L183.52-45.99Q186.48-45.99 188.28-44.67L188.28-44.67L188.28-44.67Q190.07-43.34 190.07-40.89L190.07-40.89L190.07-40.89Q190.07-38.43 188.09-37.17L188.09-37.17L188.09-37.17Q186.10-35.91 183.14-35.91L183.14-35.91L183.14-35.91Q180.18-35.91 178.32-37.17L178.32-37.17L178.32-37.17Q176.46-38.43 176.46-40.89ZM222.07-26.21L222.07-26.21L222.07-26.21Q222.07-23.56 219.87-21.92L219.87-21.92L219.87-21.92Q217.66-20.29 214.07-20.29L214.07-20.29L214.07-20.29Q212.56-20.29 211.68-20.73L211.68-20.73L211.68-20.73Q212.37-22.36 212.59-24.41L212.59-24.41L212.59-24.41Q212.81-26.46 212.81-27.03L212.81-27.03L212.81-27.03Q212.81-29.67 210.99-29.67L210.99-29.67L210.99-29.67Q209.73-29.67 208.31-28.10L208.31-28.10L208.31-28.10Q206.89-26.52 205.69-24.07L205.69-24.07L205.69-24.07Q203.05-18.40 203.05-12.66L203.05-12.66L203.05-12.66Q203.05-9.51 204.25-8.10L204.25-8.10L204.25-8.10Q205.44-6.68 208.09-6.68L208.09-6.68L208.09-6.68Q211.74-6.68 214.64-9.70L214.64-9.70L214.64-9.70Q215.46-10.65 215.90-11.72L215.90-11.72L215.90-11.72Q218.29-10.46 218.29-6.99L218.29-6.99L218.29-6.99Q218.29-3.46 214.39-1.13L214.39-1.13L214.39-1.13Q210.36 1.26 203.93 1.26L203.93 1.26L203.93 1.26Q191.14 1.26 191.14-12.29L191.14-12.29L191.14-12.29Q191.14-22.18 196.75-27.85L196.75-27.85L196.75-27.85Q202.17-33.39 212.12-33.39L212.12-33.39L212.12-33.39Q222.07-33.39 222.07-26.21ZM240.03-29.86L240.03-29.86L240.03-29.86Q243.43-33.39 250.61-33.39L250.61-33.39L250.61-33.39Q254.58-33.39 256.76-31.28L256.76-31.28L256.76-31.28Q258.93-29.17 258.93-25.29L258.93-25.29L258.93-25.29Q258.93-21.42 256.76-18.68L256.76-18.68L256.76-18.68Q254.58-15.94 250.55-14.80L250.55-14.80L250.55-14.80Q250.87-13.54 251.31-12.22L251.31-12.22L252.19-9.70L252.19-9.70Q253.39-6.49 254.33-5.36L254.33-5.36L254.33-5.36Q255.28-4.22 256.54-3.84L256.54-3.84L256.54-3.84Q255.84-1.26 253.32 0.13L253.32 0.13L253.32 0.13Q251.31 1.26 248.53 1.26L248.53 1.26L248.53 1.26Q240.41 1.26 239.34-11.28L239.34-11.28L239.34-11.28Q239.15-13.04 239.15-14.80L239.15-14.80L239.15-14.80Q242.30-15.69 244.50-18.65L244.50-18.65L244.50-18.65Q246.71-21.61 246.71-25.07L246.71-25.07L246.71-25.07Q246.71-28.54 244.25-28.54L244.25-28.54L244.25-28.54Q242.49-28.54 241.10-26.59L241.10-26.59L241.10-26.59Q239.71-24.63 239.08-21.29L239.08-21.29L234.93 0L222.20 1.26L231.02-44.10L243.68-45.36L242.23-37.86L242.23-37.86Q241.29-32.57 240.03-29.86Z" fill="#ffffff"></path></g></g><style>text {
  font-size: 64px;
  font-family: Arial Black;
  dominant-baseline: central;
  text-anchor: middle;
}</style></svg>